<svg width="71" height="51" viewBox="0 0 71 51" fill="none" xmlns="http://www.w3.org/2000/svg">
<g id="label">
<g id="text" opacity="0.64">
<path id="Vector" d="M3.51607 50.998L2.73119 49.1666C2.38235 48.3236 2.64398 47.6841 3.39979 47.3352C4.18468 46.9864 4.85328 47.248 5.20212 48.091L5.75444 49.3701L7.46956 48.6143L7.70212 49.1666L3.51607 50.998ZM5.28933 49.5736L4.82421 48.4689C4.56258 47.8294 4.15561 47.6841 3.66142 47.8876C3.16723 48.091 3.02189 48.498 3.28351 49.1376L3.74863 50.2422L5.28933 49.5736Z" fill="#FFFCF6"/>
<path id="Vector_2" d="M1.36645 45.3598L0.872266 43.2667C0.668777 42.4237 1.01761 41.8133 1.71529 41.6388C2.23854 41.5226 2.7618 41.6388 3.02343 42.133C2.99436 41.5807 3.3432 41.4063 3.77924 41.2609C4.21529 41.1156 4.70947 41.0284 4.94203 40.7086L5.08738 41.3772C4.94203 41.5807 4.44785 41.6098 4.04087 41.7842C3.63389 41.9586 3.28506 42.133 3.40134 42.7144L3.75017 44.1679L5.63971 43.7319L5.78506 44.3133L1.36645 45.3598ZM2.96529 43.0633C2.84901 42.5109 2.58738 42.0749 1.94785 42.2202C1.5118 42.3365 1.25017 42.6272 1.36645 43.1795L1.71529 44.6621L3.25599 44.2842L2.96529 43.0633Z" fill="#FFFCF6"/>
<path id="Vector_3" d="M0.176372 39.1979L0.00195299 36.0584L0.525209 36.0293L0.670558 38.5584L2.12405 38.4712L1.9787 36.1165L2.50195 36.0875L2.61823 38.4712L4.188 38.384L4.04265 35.8258L4.56591 35.7968L4.74033 38.9654L0.176372 39.1979Z" fill="#FFFCF6"/>
<path id="Vector_4" d="M0.0280761 33.3236L0.144355 32.5096L4.12691 31.5794L0.522262 29.6608L0.638541 28.8468L5.17343 29.4282L5.08622 30.0096L1.30715 29.5154L4.88273 31.4341L4.82459 31.9573L0.8711 32.8585L4.65017 33.3527L4.56296 33.9341L0.0280761 33.3236Z" fill="#FFFCF6"/>
<path id="Vector_5" d="M1.36548 26.0575L1.5399 25.4761L5.92943 26.7842L5.75501 27.3656L1.36548 26.0575Z" fill="#FFFCF6"/>
<path id="Vector_6" d="M6.60011 20.7099C7.64662 21.175 7.93732 22.0471 7.44313 23.0645C6.94895 24.1401 6.16406 24.5471 5.05941 24.0238L2.41406 22.8029L2.67569 22.2506L5.32104 23.4715C6.04778 23.8204 6.65825 23.5587 6.97802 22.832C7.29778 22.1343 7.06523 21.5529 6.33848 21.2331L3.69313 20.0122L3.95476 19.4599L6.60011 20.7099Z" fill="#FFFCF6"/>
<path id="Vector_7" d="M5.43677 16.902L5.93095 16.2334L9.88444 17.338L7.64607 13.9078L8.14026 13.2392L11.8321 15.9427L11.4833 16.4078L8.43095 14.1694L10.6403 17.5706L10.3205 17.9776L6.42514 16.8729L9.47747 19.1113L9.12863 19.5764L5.43677 16.902Z" fill="#FFFCF6"/>
<path id="Vector_8" d="M12.676 8.7341L14.3911 7.45503C15.0888 6.93177 15.7865 6.98992 16.2225 7.57131C16.5423 8.00736 16.6295 8.53061 16.2807 8.96665C16.7749 8.7341 17.0946 8.96666 17.3853 9.31549C17.676 9.66433 17.9667 10.0713 18.3446 10.1585L17.7923 10.5655C17.5307 10.5073 17.3272 10.0713 16.9784 9.75154C16.6586 9.43177 16.3388 9.19921 15.8737 9.54805L14.6818 10.4492L15.8446 12.019L15.3504 12.3969L12.676 8.7341ZM15.4377 9.28642C15.9028 8.93759 16.1935 8.53061 15.7865 8.00736C15.5249 7.65852 15.1179 7.54224 14.6818 7.86201L13.4609 8.76317L14.4202 10.0422L15.4377 9.28642Z" fill="#FFFCF6"/>
<path id="Vector_9" d="M19.5654 4.19639C20.8735 3.55685 22.0363 4.25453 22.5886 5.38825C23.1409 6.4929 22.9956 7.85918 21.6874 8.49871C20.3793 9.13825 19.2165 8.44057 18.6642 7.30685C18.0828 6.2022 18.2572 4.83592 19.5654 4.19639ZM21.4258 8.03359C22.4142 7.53941 22.4142 6.46383 22.0072 5.64987C21.6002 4.83592 20.7572 4.16732 19.7688 4.66151C18.7805 5.15569 18.7805 6.23127 19.1874 7.04522C19.5944 7.85918 20.4374 8.52778 21.4258 8.03359Z" fill="#FFFCF6"/>
<path id="Vector_10" d="M25.9596 1.8154C27.355 1.43749 28.3724 2.36772 28.6922 3.55958C29.012 4.75144 28.605 6.05958 27.1806 6.43748C25.7561 6.81539 24.7678 5.88516 24.448 4.6933C24.1573 3.47237 24.5643 2.16423 25.9596 1.8154ZM27.0643 5.9433C28.1399 5.6526 28.3433 4.60609 28.1108 3.734C27.8782 2.83283 27.1806 2.04795 26.105 2.30958C25.0294 2.60028 24.8259 3.64679 25.0585 4.51888C25.291 5.42005 25.9887 6.20493 27.0643 5.9433Z" fill="#FFFCF6"/>
<path id="Vector_11" d="M30.8452 0.914268L31.6882 0.856129L33.3161 4.60613L34.5661 0.71078L35.4092 0.652641L35.6417 5.2166L35.0603 5.24567L34.8568 1.43752L33.6359 5.30381L33.1127 5.33288L31.4848 1.61195L31.6882 5.42009L31.1068 5.44916L30.8452 0.914268Z" fill="#FFFCF6"/>
<path id="Vector_12" d="M40.7875 2.54138C40.8166 1.87278 40.4096 1.55301 39.7992 1.4658C39.305 1.40766 38.7526 1.49487 38.6654 2.10534C38.5782 2.65766 39.305 2.86115 40.0026 3.12278C40.7003 3.38441 41.398 3.73324 41.2526 4.63441C41.1073 5.59371 40.1189 5.85534 39.305 5.73906C38.2875 5.59371 37.5026 4.98324 37.648 3.87859L38.2294 3.9658C38.1131 4.72162 38.7236 5.15767 39.3922 5.24488C39.9445 5.33209 40.555 5.24487 40.6422 4.57627C40.7294 3.9658 40.0317 3.73324 39.334 3.47162C38.6364 3.20999 37.9387 2.89022 38.055 2.07627C38.1712 1.14603 39.0724 0.855332 39.8864 0.971611C40.8166 1.08789 41.4561 1.64022 41.3399 2.62859L40.7875 2.54138Z" fill="#FFFCF6"/>
<path id="Vector_13" d="M43.1083 5.67909L43.7769 5.88258L43.5734 6.55118L42.9048 6.34769L43.1083 5.67909Z" fill="#FFFCF6"/>
<path id="Vector_14" d="M50.64 4.40017L52.0935 5.21413C52.4423 5.41762 52.9074 5.67925 53.0528 5.94088C53.2272 6.23157 53.2853 6.63855 53.0528 7.04553C52.8202 7.48158 52.4133 7.65599 51.9481 7.59785C52.3842 7.97576 52.4423 8.49902 52.1516 8.99321C51.8319 9.5746 51.076 9.89437 50.2912 9.45833L48.3726 8.38274L50.64 4.40017ZM49.1865 8.20832L50.5237 8.96414C50.9888 9.22576 51.4249 9.10949 51.6865 8.67344C51.9772 8.15018 51.6284 7.77227 51.1923 7.51064L49.9714 6.84204L49.1865 8.20832ZM50.204 6.40599L51.2505 7.01646C51.8609 7.3653 52.2098 7.27809 52.4423 6.87111C52.7621 6.31878 52.4133 6.02808 51.9481 5.76645L50.9016 5.15599L50.204 6.40599Z" fill="#FFFCF6"/>
<path id="Vector_15" d="M56.9451 8.49919L57.4684 8.93524L55.9277 13.5864L55.4044 13.1503L55.8986 11.7841L54.4161 10.5631L53.137 11.2899L52.6428 10.8829L56.9451 8.49919ZM54.8812 10.2724L56.073 11.2608L56.8289 9.13872L54.8812 10.2724Z" fill="#FFFCF6"/>
<path id="Vector_16" d="M60.4935 11.7259L60.9005 12.2201L59.6214 16.4352L62.4412 14.0515L62.8191 14.4875L59.3307 17.4527L58.8947 16.9585L60.1447 12.7724L57.354 15.1271L56.9761 14.691L60.4935 11.7259Z" fill="#FFFCF6"/>
<path id="Vector_17" d="M64.506 16.901L64.7967 17.4243L62.8199 18.558L65.9595 19.4301L66.3374 20.0987L63.7792 19.3429L62.413 22.4243L62.035 21.7557L63.2269 19.1685L62.2385 18.8487L60.8432 19.6336L60.5525 19.1103L64.506 16.901Z" fill="#FFFCF6"/>
<path id="Vector_18" d="M68.4894 25.5935L68.6348 26.1748L66.7162 26.64L67.2976 28.9655L69.2162 28.5004L69.3615 29.0818L64.9138 30.1574L64.7685 29.576L66.8034 29.0818L66.222 26.7562L64.1871 27.2504L64.0417 26.669L68.4894 25.5935Z" fill="#FFFCF6"/>
<path id="Vector_19" d="M69.9997 33.9648C70.0579 35.4183 68.9532 36.2032 67.7032 36.2613C66.4532 36.3195 65.2904 35.6509 65.2032 34.1974C65.116 32.7439 66.2497 31.959 67.4997 31.9009C68.7497 31.8427 69.9125 32.5113 69.9997 33.9648ZM65.7265 34.1683C65.7846 35.273 66.773 35.709 67.6741 35.6509C68.5753 35.5927 69.5346 35.0986 69.4765 33.9939C69.4183 32.8893 68.43 32.4532 67.5288 32.5113C66.6276 32.5695 65.6683 33.0637 65.7265 34.1683Z" fill="#FFFCF6"/>
<path id="Vector_20" d="M69.1852 39.7488L69.3887 38.2372L69.8829 38.2954L69.4178 41.9291L68.9236 41.8709L69.1271 40.3593L65.1155 39.8361L65.2027 39.2256L69.1852 39.7488Z" fill="#FFFCF6"/>
<path id="Vector_21" d="M68.8964 44.2262L67.9952 47.2494L67.5011 47.1041L68.2278 44.6622L66.8325 44.2552L66.1639 46.5227L65.6697 46.3773L66.3383 44.1099L64.8266 43.6738L64.0999 46.1448L63.6057 45.9994L64.5069 42.9471L68.8964 44.2262Z" fill="#FFFCF6"/>
<path id="Vector_22" d="M67.033 49.661L66.7714 50.2133L63.1086 48.4691L62.062 50.6493L61.5969 50.4168L62.9051 47.6842L67.033 49.661Z" fill="#FFFCF6"/>
</g>
<g id="icon">
<g id="Rectangle 93">
<path d="M30.2011 28.8511C29.8032 28.3289 29.9543 27.5759 30.5229 27.2476V27.2476C31.0536 26.9412 31.7328 27.1705 31.9692 27.7358L35.1539 35.3512L30.2011 28.8511Z" fill="#FCD043"/>
</g>
<g id="Rectangle 95">
<path d="M41.6529 30.3977C42.1751 29.9998 42.9281 30.1509 43.2564 30.7195V30.7195C43.5628 31.2502 43.3335 31.9293 42.7682 32.1658L35.1528 35.3504L41.6529 30.3977Z" fill="#FCD043"/>
</g>
<g id="Rectangle 97">
<path d="M36.2813 27.2617C36.3692 26.611 37.0085 26.1854 37.6427 26.3554V26.3554C38.2346 26.514 38.5527 27.1563 38.3201 27.7233L35.1872 35.36L36.2813 27.2617Z" fill="#FCD043"/>
</g>
<g id="Rectangle 99">
<path d="M43.2882 36.4551C43.9389 36.543 44.3644 37.1823 44.1945 37.8165V37.8165C44.0359 38.4084 43.3936 38.7265 42.8266 38.4939L35.1899 35.361L43.2882 36.4551Z" fill="#FCD043"/>
</g>
<g id="Rectangle 94">
<path d="M40.1038 41.8505C40.5017 42.3727 40.3506 43.1257 39.782 43.454V43.454C39.2513 43.7604 38.5722 43.5311 38.3357 42.9658L35.1511 35.3504L40.1038 41.8505Z" fill="#FCD043"/>
</g>
<g id="Rectangle 96">
<path d="M28.6501 40.3018C28.1279 40.6997 27.3749 40.5486 27.0466 39.98V39.98C26.7402 39.4493 26.9695 38.7702 27.5348 38.5338L35.1501 35.3491L28.6501 40.3018Z" fill="#FCD043"/>
</g>
<g id="Rectangle 98">
<path d="M34.0947 43.4604C34.0068 44.1111 33.3675 44.5367 32.7333 44.3668V44.3668C32.1414 44.2082 31.8232 43.5658 32.0558 42.9989L35.1888 35.3621L34.0947 43.4604Z" fill="#FCD043"/>
</g>
<g id="Rectangle 100">
<path d="M27.0914 34.2657C26.4408 34.1778 26.0152 33.5385 26.1851 32.9043V32.9043C26.3437 32.3124 26.9861 31.9943 27.553 32.2269L35.1898 35.3598L27.0914 34.2657Z" fill="#FCD043"/>
</g>
</g>
</g>
</svg>
