<svg width="148" height="148" viewBox="0 0 148 148" fill="none" xmlns="http://www.w3.org/2000/svg">
<g id="label">
<g id="text">
<path id="Vector" d="M66.2903 143.02L63.119 141.747C61.6743 141.146 61.2162 140.05 61.7095 138.707C62.2381 137.328 63.3657 136.833 64.8104 137.434L67.0303 138.318L68.1932 135.313L69.1446 135.702L66.2903 143.02ZM66.7132 139.131L64.8104 138.353C63.718 137.894 63.0485 138.212 62.6962 139.06C62.3438 139.909 62.6609 140.58 63.7533 141.04L65.6561 141.818L66.7132 139.131Z" fill="#FFFCF6"/>
<path id="Vector_2" d="M56.8465 138.778L53.7104 136.834C52.4419 136.056 52.1248 134.889 52.759 133.829C53.2524 133.051 54.0276 132.556 54.9437 132.839C54.239 132.203 54.4504 131.567 54.8028 130.86C55.1552 130.153 55.6485 129.446 55.5428 128.774L56.5294 129.41C56.5999 129.834 56.0361 130.471 55.7542 131.178C55.4723 131.885 55.2609 132.521 56.1066 133.087L58.2913 134.43L60.0531 131.602L60.9341 132.132L56.8465 138.778ZM56.0009 134.041C55.1904 133.511 54.3447 133.299 53.7457 134.253C53.3581 134.925 53.3933 135.596 54.2038 136.127L56.4237 137.505L57.8332 135.172L56.0009 134.041Z" fill="#FFFCF6"/>
<path id="Vector_3" d="M47.936 132.732L43.919 129.126L44.518 128.454L47.7598 131.353L49.416 129.48L46.3856 126.793L46.9846 126.121L50.015 128.879L51.8121 126.864L48.5351 123.93L49.1341 123.258L53.1864 126.899L47.936 132.732Z" fill="#FFFCF6"/>
<path id="Vector_4" d="M40.6409 125.769L39.7952 124.638L43.4951 118.664L36.8 120.714L35.9543 119.583L42.1561 114.775L42.7551 115.588L37.5752 119.583L44.2351 117.568L44.7989 118.275L41.099 124.178L46.2788 120.184L46.8779 120.997L40.6409 125.769Z" fill="#FFFCF6"/>
<path id="Vector_5" d="M33.4514 115.306L32.9581 114.387L39.8646 110.64L40.3579 111.559L33.4514 115.306Z" fill="#FFFCF6"/>
<path id="Vector_6" d="M33.3113 102.438C35.1436 101.731 36.5531 102.438 37.1874 104.276C37.8921 106.185 37.4341 107.634 35.4608 108.341L30.7742 110.073L30.4219 109.084L35.1084 107.351C36.4122 106.892 36.835 105.831 36.3417 104.559C35.8836 103.322 34.897 102.897 33.6284 103.392L28.9419 105.124L28.5895 104.135L33.3113 102.438Z" fill="#FFFCF6"/>
<path id="Vector_7" d="M27.2875 99.22L27.076 97.8061L33.2073 94.3419L26.3361 92.8925L26.1246 91.4786L33.8768 90.2767L34.0178 91.2665L27.6046 92.2563L34.4054 93.7056L34.5111 94.5893L28.4503 97.9828L34.8635 96.993L35.0044 97.9828L27.2875 99.22Z" fill="#FFFCF6"/>
<path id="Vector_8" d="M26.1597 80.484L26.6883 76.843C26.8997 75.3584 27.8159 74.5807 29.0492 74.7574C29.9653 74.8988 30.7053 75.4291 30.811 76.3835C31.1282 75.4998 31.7977 75.3937 32.5729 75.4644C33.3481 75.5351 34.1938 75.6765 34.7576 75.323L34.5814 76.4895C34.1938 76.737 33.4186 76.4542 32.6081 76.4895C31.8329 76.4895 31.1634 76.5956 31.0225 77.5854L30.6701 80.1305L33.9824 80.6254L33.8414 81.6859L26.1597 80.484ZM30.1768 77.7975C30.3177 76.8077 30.1768 75.9593 29.0492 75.8179C28.3092 75.7119 27.6749 76.0653 27.534 76.9844L27.1464 79.5649L29.8596 79.9538L30.1768 77.7975Z" fill="#FFFCF6"/>
<path id="Vector_9" d="M29.0107 66.593C29.8212 64.2246 32.0763 63.659 34.1201 64.366C36.1286 65.0377 37.6085 66.8758 36.7981 69.2442C35.9876 71.6126 33.7325 72.1782 31.6887 71.4712C29.645 70.8349 28.2003 68.9614 29.0107 66.593ZM35.9172 68.9968C36.5162 67.194 35.2124 65.886 33.7325 65.3912C32.2525 64.8963 30.4202 65.1084 29.8212 66.9112C29.2221 68.714 30.5259 70.0219 32.0059 70.5168C33.4858 71.0117 35.3181 70.7996 35.9172 68.9968Z" fill="#FFFCF6"/>
<path id="Vector_10" d="M33.872 55.9174C35.1053 53.7611 37.4662 53.6551 39.2985 54.7156C41.1308 55.776 42.2232 57.8616 40.9546 60.0533C39.6861 62.245 37.3604 62.3157 35.5281 61.2552C33.6958 60.124 32.6034 58.0384 33.872 55.9174ZM40.2147 59.5938C41.1661 57.9324 40.1442 56.4123 38.8052 55.6346C37.4309 54.8216 35.6338 54.7156 34.6472 56.3416C33.6958 58.003 34.7177 59.5231 36.0567 60.3008C37.4309 61.1138 39.228 61.2198 40.2147 59.5938Z" fill="#FFFCF6"/>
<path id="Vector_11" d="M38.7042 48.8815L39.6556 47.7857L46.1745 50.3662L42.9679 44.1093L43.9193 43.0135L49.7334 48.2806L49.0639 49.0229L44.2012 44.6396L47.4078 50.8257L46.8087 51.4973L40.3251 48.9522L45.1878 53.3355L44.5183 54.0779L38.7042 48.8815Z" fill="#FFFCF6"/>
<path id="Vector_12" d="M52.7299 38.7726C51.9547 37.9243 51.0737 38.0303 50.2281 38.6666C49.5586 39.1968 48.9948 39.9745 49.629 40.8229C50.1928 41.6006 51.3204 40.9643 52.4832 40.4341C53.6461 39.9038 54.9146 39.4796 55.8308 40.7522C56.8174 42.0955 55.9365 43.6155 54.8089 44.4639C53.3994 45.5243 51.708 45.7364 50.5452 44.2164L51.3556 43.6155C52.1309 44.676 53.3994 44.4639 54.3156 43.7569C55.0908 43.1913 55.7251 42.3429 55.0203 41.4238C54.386 40.5755 53.2585 41.141 52.0956 41.6713C50.9328 42.2015 49.6995 42.6611 48.8538 41.5299C47.8672 40.2573 48.6071 38.808 49.7347 37.9596C51.0033 36.9698 52.448 36.8638 53.5051 38.2071L52.7299 38.7726Z" fill="#FFFCF6"/>
<path id="Vector_13" d="M59.3517 39.7624L60.4088 39.1968L60.9726 40.2573L59.9154 40.8229L59.3517 39.7624Z" fill="#FFFCF6"/>
<path id="Vector_14" d="M66.9243 29.0516L69.6729 28.274C70.3424 28.0972 71.2233 27.8498 71.7166 27.9912C72.2804 28.1326 72.8442 28.5567 73.0556 29.3344C73.3023 30.1475 73.0204 30.8545 72.3861 31.3493C73.3728 31.2786 74.0775 31.8442 74.3242 32.7987C74.6413 33.8945 74.1127 35.2024 72.6328 35.6266L69.0033 36.6517L66.9243 29.0516ZM69.7786 35.4499L72.3156 34.7429C73.1966 34.4954 73.5842 33.8238 73.3728 32.9754C73.0909 31.9856 72.2099 31.9503 71.3642 32.1624L69.0738 32.834L69.7786 35.4499ZM68.8272 32.021L70.8357 31.4907C71.9985 31.1726 72.3156 30.6424 72.1042 29.8647C71.8223 28.8042 71.0471 28.8749 70.1662 29.1223L68.1577 29.6526L68.8272 32.021Z" fill="#FFFCF6"/>
<path id="Vector_15" d="M79.5388 26.3649L80.7017 26.2588L84.472 33.7882L83.3092 33.8943L82.2521 31.6319L78.975 31.9501L78.3055 34.3892L77.2132 34.4952L79.5388 26.3649ZM79.1865 31.031L81.8292 30.7836L80.1731 27.284L79.1865 31.031Z" fill="#FFFCF6"/>
<path id="Vector_16" d="M87.7497 25.9733L88.8421 26.0794L92.401 32.7604L92.9296 26.4328L93.9162 26.5035L93.282 34.3511L92.1544 34.2804L88.5954 27.6701L88.0668 33.9269L87.0802 33.8562L87.7497 25.9733Z" fill="#FFFCF6"/>
<path id="Vector_17" d="M98.8843 27.3893L99.8709 27.672L98.8491 31.4544L103.712 28.6972L104.98 29.0507L100.963 31.2423L103.042 36.6507L101.774 36.2972L100.082 31.7019L98.4967 32.5149L97.7567 35.1661L96.7701 34.8833L98.8843 27.3893Z" fill="#FFFCF6"/>
<path id="Vector_18" d="M114.256 33.116L115.136 33.6462L113.375 36.5449L116.898 38.6658L118.66 35.7672L119.541 36.2974L115.454 43.0137L114.573 42.4835L116.44 39.4081L112.917 37.2872L111.049 40.3626L110.168 39.8323L114.256 33.116Z" fill="#FFFCF6"/>
<path id="Vector_19" d="M126.233 41.4586C128.065 43.1553 127.678 45.453 126.233 47.0437C124.788 48.6345 122.568 49.2354 120.701 47.574C118.833 45.9126 119.256 43.5795 120.701 41.9888C122.146 40.3981 124.366 39.7972 126.233 41.4586ZM121.3 46.9023C122.709 48.1749 124.436 47.5033 125.458 46.3368C126.48 45.1702 127.044 43.4028 125.634 42.1302C124.225 40.8576 122.498 41.5293 121.476 42.6958C120.454 43.8623 119.89 45.6298 121.3 46.9023Z" fill="#FFFCF6"/>
<path id="Vector_20" d="M132.257 49.4829L130.672 47.3973L131.341 46.8671L135.182 51.8513L134.512 52.3816L132.927 50.2959L127.43 54.5379L126.795 53.6895L132.257 49.4829Z" fill="#FFFCF6"/>
<path id="Vector_21" d="M137.332 55.2793L139.905 60.0514L139.13 60.4756L137.051 56.6226L134.866 57.8244L136.804 61.3947L136.029 61.8189L134.091 58.2486L131.73 59.5565L133.844 63.445L133.069 63.8691L130.461 59.0617L137.332 55.2793Z" fill="#FFFCF6"/>
<path id="Vector_22" d="M141.663 64.1531L142.015 65.1429L135.461 67.476L136.835 71.3997L135.99 71.6825L134.263 66.769L141.663 64.1531Z" fill="#FFFCF6"/>
</g>
<g id="icon">
<g id="Rectangle 93">
<path d="M71.787 83.6472C70.6664 83.4961 69.9327 82.3947 70.225 81.3023V81.3023C70.4979 80.2827 71.6041 79.7353 72.5803 80.1369L85.6581 85.5171L71.787 83.6472Z" fill="#FCD043"/>
</g>
<g id="Rectangle 95">
<path d="M87.5478 71.5847C87.6986 70.4709 88.7925 69.7431 89.8779 70.0343V70.0343C90.891 70.3062 91.4361 71.4057 91.0389 72.3764L85.6604 85.5233L87.5478 71.5847Z" fill="#FCD043"/>
</g>
<g id="Rectangle 97">
<path d="M77.2229 74.3139C76.5421 73.4177 76.8038 72.1237 77.7802 71.558V71.558C78.6915 71.0299 79.8559 71.4215 80.2599 72.392L85.7126 85.4893L77.2229 74.3139Z" fill="#FCD043"/>
</g>
<g id="Rectangle 99">
<path d="M96.8629 76.9721C97.7602 76.2864 99.0519 76.5436 99.6135 77.5198V77.5198C100.138 78.4309 99.7419 79.5988 98.771 80.0066L85.7171 85.49L96.8629 76.9721Z" fill="#FCD043"/>
</g>
<g id="Rectangle 94">
<path d="M99.5294 87.3963C100.65 87.5474 101.384 88.6487 101.091 89.7411V89.7411C100.819 90.7607 99.7123 91.3081 98.7361 90.9065L85.6584 85.5264L99.5294 87.3963Z" fill="#FCD043"/>
</g>
<g id="Rectangle 96">
<path d="M83.7784 99.4588C83.6276 100.573 82.5336 101.3 81.4482 101.009V101.009C80.4351 100.737 79.8901 99.6377 80.2872 98.667L85.6657 85.5201L83.7784 99.4588Z" fill="#FCD043"/>
</g>
<g id="Rectangle 98">
<path d="M94.2107 96.6685C94.8915 97.5647 94.6298 98.8587 93.6534 99.4245V99.4245C92.7421 99.9525 91.5777 99.5609 91.1737 98.5905L85.721 85.4931L94.2107 96.6685Z" fill="#FCD043"/>
</g>
<g id="Rectangle 100">
<path d="M74.5726 94.005C73.6754 94.6907 72.3836 94.4335 71.8221 93.4573V93.4573C71.2979 92.5462 71.6936 91.3783 72.6646 90.9704L85.7185 85.4871L74.5726 94.005Z" fill="#FCD043"/>
</g>
</g>
</g>
</svg>
