<svg width="183" height="183" viewBox="0 0 183 183" fill="none" xmlns="http://www.w3.org/2000/svg">
<g id="label">
<g id="text">
<g id="Vector">
<path d="M5.32927 81.6178L6.91498 77.6536C7.66378 75.8476 9.02925 75.275 10.7031 75.8917C12.4209 76.5524 13.0376 77.9619 12.2888 79.7679L11.1876 82.5428L14.9316 83.9964L14.4471 85.1857L5.32927 81.6178ZM10.1745 82.1464L11.1435 79.7679C11.7161 78.4024 11.3197 77.5655 10.2626 77.125C9.20544 76.6845 8.36854 77.081 7.79593 78.4464L6.82688 80.825L10.1745 82.1464Z" fill="#1B3B36"/>
<path d="M5.32927 81.6178L6.91498 77.6536C7.66378 75.8476 9.02925 75.275 10.7031 75.8917C12.4209 76.5524 13.0376 77.9619 12.2888 79.7679L11.1876 82.5428L14.9316 83.9964L14.4471 85.1857L5.32927 81.6178ZM10.1745 82.1464L11.1435 79.7679C11.7161 78.4024 11.3197 77.5655 10.2626 77.125C9.20544 76.6845 8.36854 77.081 7.79593 78.4464L6.82688 80.825L10.1745 82.1464Z" fill="black" fill-opacity="0.2"/>
</g>
<g id="Vector_2">
<path d="M10.6163 69.815L13.0389 65.8948C14.008 64.3091 15.4615 63.9127 16.7829 64.7055C17.752 65.3222 18.3686 66.2912 18.0163 67.4365C18.8091 66.5555 19.602 66.8198 20.4829 67.2603C21.3639 67.7008 22.2448 68.3174 23.0817 68.1853L22.2889 69.4186C21.7603 69.5067 20.9674 68.8019 20.0865 68.4496C19.2055 68.0972 18.4127 67.8329 17.7079 68.89L16.0341 71.621L19.5579 73.8233L18.8972 74.9245L10.6163 69.815ZM16.5187 68.7579C17.1794 67.7448 17.4436 66.6877 16.2544 65.9389C15.4175 65.4543 14.5806 65.4984 13.9199 66.5115L12.202 69.2865L15.1091 71.0484L16.5187 68.7579Z" fill="#1B3B36"/>
<path d="M10.6163 69.815L13.0389 65.8948C14.008 64.3091 15.4615 63.9127 16.7829 64.7055C17.752 65.3222 18.3686 66.2912 18.0163 67.4365C18.8091 66.5555 19.602 66.8198 20.4829 67.2603C21.3639 67.7008 22.2448 68.3174 23.0817 68.1853L22.2889 69.4186C21.7603 69.5067 20.9674 68.8019 20.0865 68.4496C19.2055 68.0972 18.4127 67.8329 17.7079 68.89L16.0341 71.621L19.5579 73.8233L18.8972 74.9245L10.6163 69.815ZM16.5187 68.7579C17.1794 67.7448 17.4436 66.6877 16.2544 65.9389C15.4175 65.4543 14.5806 65.4984 13.9199 66.5115L12.202 69.2865L15.1091 71.0484L16.5187 68.7579Z" fill="black" fill-opacity="0.2"/>
</g>
<g id="Vector_3">
<path d="M18.1471 58.6705L22.6399 53.6491L23.4768 54.3979L19.8649 58.4503L22.1995 60.5205L25.5471 56.7325L26.3839 57.4813L22.9483 61.2693L25.459 63.5157L29.1149 59.4193L29.9518 60.1681L25.4149 65.2336L18.1471 58.6705Z" fill="#1B3B36"/>
<path d="M18.1471 58.6705L22.6399 53.6491L23.4768 54.3979L19.8649 58.4503L22.1995 60.5205L25.5471 56.7325L26.3839 57.4813L22.9483 61.2693L25.459 63.5157L29.1149 59.4193L29.9518 60.1681L25.4149 65.2336L18.1471 58.6705Z" fill="black" fill-opacity="0.2"/>
</g>
<g id="Vector_4">
<path d="M26.8225 49.553L28.232 48.4959L35.676 53.1209L33.1212 44.7519L34.5307 43.6947L40.5212 51.4471L39.5081 52.1959L34.5307 45.7209L37.0414 54.0459L36.1605 54.7506L28.8046 50.1256L33.7819 56.6006L32.7688 57.3494L26.8225 49.553Z" fill="#1B3B36"/>
<path d="M26.8225 49.553L28.232 48.4959L35.676 53.1209L33.1212 44.7519L34.5307 43.6947L40.5212 51.4471L39.5081 52.1959L34.5307 45.7209L37.0414 54.0459L36.1605 54.7506L28.8046 50.1256L33.7819 56.6006L32.7688 57.3494L26.8225 49.553Z" fill="black" fill-opacity="0.2"/>
</g>
<g id="Vector_5">
<path d="M39.864 40.5691L41.0092 39.9525L45.6782 48.5858L44.533 49.2024L39.864 40.5691Z" fill="#1B3B36"/>
<path d="M39.864 40.5691L41.0092 39.9525L45.6782 48.5858L44.533 49.2024L39.864 40.5691Z" fill="black" fill-opacity="0.2"/>
</g>
<g id="Vector_6">
<path d="M55.8946 40.3931C56.7756 42.6835 55.8946 44.4454 53.6042 45.2383C51.2256 46.1192 49.4197 45.5466 48.5387 43.08L46.3804 37.2217L47.6137 36.7812L49.772 42.6395C50.3446 44.2692 51.6661 44.7978 53.2518 44.1811C54.7934 43.6085 55.322 42.3752 54.7053 40.7895L52.547 34.9312L53.7803 34.4907L55.8946 40.3931Z" fill="#1B3B36"/>
<path d="M55.8946 40.3931C56.7756 42.6835 55.8946 44.4454 53.6042 45.2383C51.2256 46.1192 49.4197 45.5466 48.5387 43.08L46.3804 37.2217L47.6137 36.7812L49.772 42.6395C50.3446 44.2692 51.6661 44.7978 53.2518 44.1811C54.7934 43.6085 55.322 42.3752 54.7053 40.7895L52.547 34.9312L53.7803 34.4907L55.8946 40.3931Z" fill="black" fill-opacity="0.2"/>
</g>
<g id="Vector_7">
<path d="M59.9039 32.8588L61.6658 32.5945L65.9825 40.2587L67.7884 31.6695L69.5503 31.4052L71.0479 41.0956L69.8146 41.2718L68.5812 33.2552L66.7753 41.7563L65.6741 41.8885L61.4456 34.3123L62.6789 42.329L61.4456 42.5051L59.9039 32.8588Z" fill="#1B3B36"/>
<path d="M59.9039 32.8588L61.6658 32.5945L65.9825 40.2587L67.7884 31.6695L69.5503 31.4052L71.0479 41.0956L69.8146 41.2718L68.5812 33.2552L66.7753 41.7563L65.6741 41.8885L61.4456 34.3123L62.6789 42.329L61.4456 42.5051L59.9039 32.8588Z" fill="black" fill-opacity="0.2"/>
</g>
<g id="Vector_8">
<path d="M83.2482 31.4493L87.7851 32.11C89.6351 32.3743 90.6041 33.5195 90.3839 35.0612C90.2077 36.2064 89.547 37.1314 88.3577 37.2636C89.4589 37.66 89.591 38.4969 89.5029 39.4659C89.4148 40.435 89.2386 41.4921 89.6791 42.1969L88.2256 41.9766C87.9172 41.4921 88.2696 40.5231 88.2256 39.51C88.2256 38.5409 88.0934 37.704 86.8601 37.5278L83.6887 37.0874L83.072 41.2278L81.7506 41.0516L83.2482 31.4493ZM86.5958 36.4707C87.8291 36.6469 88.8863 36.4707 89.0625 35.0612C89.1946 34.1362 88.7541 33.3433 87.6089 33.1672L84.3934 32.6826L83.9089 36.0743L86.5958 36.4707Z" fill="#1B3B36"/>
<path d="M83.2482 31.4493L87.7851 32.11C89.6351 32.3743 90.6041 33.5195 90.3839 35.0612C90.2077 36.2064 89.547 37.1314 88.3577 37.2636C89.4589 37.66 89.591 38.4969 89.5029 39.4659C89.4148 40.435 89.2386 41.4921 89.6791 42.1969L88.2256 41.9766C87.9172 41.4921 88.2696 40.5231 88.2256 39.51C88.2256 38.5409 88.0934 37.704 86.8601 37.5278L83.6887 37.0874L83.072 41.2278L81.7506 41.0516L83.2482 31.4493ZM86.5958 36.4707C87.8291 36.6469 88.8863 36.4707 89.0625 35.0612C89.1946 34.1362 88.7541 33.3433 87.6089 33.1672L84.3934 32.6826L83.9089 36.0743L86.5958 36.4707Z" fill="black" fill-opacity="0.2"/>
</g>
<g id="Vector_9">
<path d="M100.559 35.0172C103.51 36.0303 104.215 38.8493 103.334 41.404C102.497 43.9147 100.207 45.7647 97.2557 44.7516C94.3045 43.7385 93.5998 40.9195 94.4807 38.3648C95.2736 35.81 97.6081 34.0041 100.559 35.0172ZM97.564 43.6504C99.8104 44.3992 101.44 42.7695 102.057 40.9195C102.674 39.0695 102.409 36.7791 100.163 36.0303C97.9164 35.2815 96.2866 36.9112 95.67 38.7612C95.0533 40.6112 95.3176 42.9016 97.564 43.6504Z" fill="#1B3B36"/>
<path d="M100.559 35.0172C103.51 36.0303 104.215 38.8493 103.334 41.404C102.497 43.9147 100.207 45.7647 97.2557 44.7516C94.3045 43.7385 93.5998 40.9195 94.4807 38.3648C95.2736 35.81 97.6081 34.0041 100.559 35.0172ZM97.564 43.6504C99.8104 44.3992 101.44 42.7695 102.057 40.9195C102.674 39.0695 102.409 36.7791 100.163 36.0303C97.9164 35.2815 96.2866 36.9112 95.67 38.7612C95.0533 40.6112 95.3176 42.9016 97.564 43.6504Z" fill="black" fill-opacity="0.2"/>
</g>
<g id="Vector_10">
<path d="M113.862 41.0957C116.549 42.6374 116.681 45.5886 115.36 47.879C114.038 50.1695 111.439 51.5349 108.708 49.9492C105.977 48.3635 105.889 45.4564 107.211 43.1659C108.62 40.8755 111.219 39.51 113.862 41.0957ZM109.281 49.0242C111.351 50.2135 113.245 48.9361 114.214 47.2623C115.227 45.5445 115.36 43.2981 113.333 42.0648C111.263 40.8755 109.369 42.1529 108.4 43.8267C107.387 45.5445 107.255 47.7909 109.281 49.0242Z" fill="#1B3B36"/>
<path d="M113.862 41.0957C116.549 42.6374 116.681 45.5886 115.36 47.879C114.038 50.1695 111.439 51.5349 108.708 49.9492C105.977 48.3635 105.889 45.4564 107.211 43.1659C108.62 40.8755 111.219 39.51 113.862 41.0957ZM109.281 49.0242C111.351 50.2135 113.245 48.9361 114.214 47.2623C115.227 45.5445 115.36 43.2981 113.333 42.0648C111.263 40.8755 109.369 42.1529 108.4 43.8267C107.387 45.5445 107.255 47.7909 109.281 49.0242Z" fill="black" fill-opacity="0.2"/>
</g>
<g id="Vector_11">
<path d="M122.627 47.1318L123.993 48.3211L120.777 56.4698L128.574 52.4615L129.939 53.6508L123.376 60.9186L122.451 60.0817L127.913 54.0032L120.205 58.0115L119.368 57.2627L122.539 49.158L117.077 55.2365L116.152 54.3996L122.627 47.1318Z" fill="#1B3B36"/>
<path d="M122.627 47.1318L123.993 48.3211L120.777 56.4698L128.574 52.4615L129.939 53.6508L123.376 60.9186L122.451 60.0817L127.913 54.0032L120.205 58.0115L119.368 57.2627L122.539 49.158L117.077 55.2365L116.152 54.3996L122.627 47.1318Z" fill="black" fill-opacity="0.2"/>
</g>
<g id="Vector_12">
<path d="M135.225 64.6624C136.282 63.6933 136.15 62.5921 135.357 61.535C134.697 60.6981 133.728 59.9934 132.671 60.7862C131.702 61.491 132.494 62.9005 133.155 64.354C133.816 65.8076 134.344 67.3933 132.759 68.5385C131.085 69.7719 129.191 68.6707 128.134 67.2612C126.812 65.4993 126.548 63.385 128.442 61.9314L129.191 62.9445C127.869 63.9136 128.134 65.4993 129.015 66.6445C129.719 67.6135 130.777 68.4064 131.922 67.5255C132.979 66.7326 132.274 65.3231 131.613 63.8695C130.953 62.416 130.38 60.8743 131.79 59.8172C133.375 58.5838 135.181 59.5088 136.238 60.9183C137.472 62.504 137.604 64.31 135.93 65.6314L135.225 64.6624Z" fill="#1B3B36"/>
<path d="M135.225 64.6624C136.282 63.6933 136.15 62.5921 135.357 61.535C134.697 60.6981 133.728 59.9934 132.671 60.7862C131.702 61.491 132.494 62.9005 133.155 64.354C133.816 65.8076 134.344 67.3933 132.759 68.5385C131.085 69.7719 129.191 68.6707 128.134 67.2612C126.812 65.4993 126.548 63.385 128.442 61.9314L129.191 62.9445C127.869 63.9136 128.134 65.4993 129.015 66.6445C129.719 67.6135 130.777 68.4064 131.922 67.5255C132.979 66.7326 132.274 65.3231 131.613 63.8695C130.953 62.416 130.38 60.8743 131.79 59.8172C133.375 58.5838 135.181 59.5088 136.238 60.9183C137.472 62.504 137.604 64.31 135.93 65.6314L135.225 64.6624Z" fill="black" fill-opacity="0.2"/>
</g>
<g id="Vector_13">
<path d="M133.992 72.9439L134.697 74.2654L133.375 74.9701L132.671 73.6487L133.992 72.9439Z" fill="#1B3B36"/>
<path d="M133.992 72.9439L134.697 74.2654L133.375 74.9701L132.671 73.6487L133.992 72.9439Z" fill="black" fill-opacity="0.2"/>
</g>
<g id="Vector_14">
<path d="M147.339 82.4132L148.308 85.8489C148.528 86.6858 148.836 87.7869 148.66 88.4036C148.484 89.1084 147.955 89.8131 146.986 90.0774C145.973 90.3857 145.092 90.0334 144.476 89.2405C144.564 90.4738 143.859 91.3548 142.67 91.6631C141.304 92.0595 139.674 91.3988 139.146 89.5488L137.868 85.012L147.339 82.4132ZM139.366 85.981L140.247 89.1524C140.555 90.2536 141.392 90.7381 142.449 90.4738C143.683 90.1214 143.727 89.0203 143.462 87.9631L142.626 85.1001L139.366 85.981ZM143.639 84.7917L144.299 87.3024C144.696 88.756 145.356 89.1524 146.326 88.8881C147.647 88.5357 147.559 87.5667 147.251 86.4655L146.59 83.9548L143.639 84.7917Z" fill="#1B3B36"/>
<path d="M147.339 82.4132L148.308 85.8489C148.528 86.6858 148.836 87.7869 148.66 88.4036C148.484 89.1084 147.955 89.8131 146.986 90.0774C145.973 90.3857 145.092 90.0334 144.476 89.2405C144.564 90.4738 143.859 91.3548 142.67 91.6631C141.304 92.0595 139.674 91.3988 139.146 89.5488L137.868 85.012L147.339 82.4132ZM139.366 85.981L140.247 89.1524C140.555 90.2536 141.392 90.7381 142.449 90.4738C143.683 90.1214 143.727 89.0203 143.462 87.9631L142.626 85.1001L139.366 85.981ZM143.639 84.7917L144.299 87.3024C144.696 88.756 145.356 89.1524 146.326 88.8881C147.647 88.5357 147.559 87.5667 147.251 86.4655L146.59 83.9548L143.639 84.7917Z" fill="black" fill-opacity="0.2"/>
</g>
<g id="Vector_15">
<path d="M150.683 98.1813L150.815 99.6349L141.433 104.348L141.301 102.894L144.12 101.573L143.724 97.4766L140.685 96.6397L140.552 95.2742L150.683 98.1813ZM144.869 97.7408L145.177 101.044L149.538 98.9742L144.869 97.7408Z" fill="#1B3B36"/>
<path d="M150.683 98.1813L150.815 99.6349L141.433 104.348L141.301 102.894L144.12 101.573L143.724 97.4766L140.685 96.6397L140.552 95.2742L150.683 98.1813ZM144.869 97.7408L145.177 101.044L149.538 98.9742L144.869 97.7408Z" fill="black" fill-opacity="0.2"/>
</g>
<g id="Vector_16">
<path d="M151.169 108.444L151.037 109.81L142.712 114.258L150.597 114.919L150.508 116.152L140.73 115.36L140.818 113.95L149.055 109.501L141.259 108.841L141.347 107.607L151.169 108.444Z" fill="#1B3B36"/>
<path d="M151.169 108.444L151.037 109.81L142.712 114.258L150.597 114.919L150.508 116.152L140.73 115.36L140.818 113.95L149.055 109.501L141.259 108.841L141.347 107.607L151.169 108.444Z" fill="black" fill-opacity="0.2"/>
</g>
<g id="Vector_17">
<path d="M149.406 122.363L149.054 123.596L144.341 122.319L147.777 128.397L147.336 129.983L144.605 124.962L137.866 127.56L138.306 125.975L144.033 123.861L143.019 121.878L139.716 120.953L140.068 119.72L149.406 122.363Z" fill="#1B3B36"/>
<path d="M149.406 122.363L149.054 123.596L144.341 122.319L147.777 128.397L147.336 129.983L144.605 124.962L137.866 127.56L138.306 125.975L144.033 123.861L143.019 121.878L139.716 120.953L140.068 119.72L149.406 122.363Z" fill="black" fill-opacity="0.2"/>
</g>
<g id="Vector_18">
<path d="M142.272 141.567L141.611 142.669L137.999 140.466L135.356 144.871L138.968 147.073L138.308 148.175L129.939 143.065L130.599 141.964L134.431 144.298L137.074 139.894L133.242 137.559L133.903 136.458L142.272 141.567Z" fill="#1B3B36"/>
<path d="M142.272 141.567L141.611 142.669L137.999 140.466L135.356 144.871L138.968 147.073L138.308 148.175L129.939 143.065L130.599 141.964L134.431 144.298L137.074 139.894L133.242 137.559L133.903 136.458L142.272 141.567Z" fill="black" fill-opacity="0.2"/>
</g>
<g id="Vector_19">
<path d="M131.877 156.544C129.763 158.834 126.9 158.35 124.918 156.544C122.936 154.738 122.187 151.963 124.257 149.628C126.327 147.294 129.234 147.822 131.216 149.628C133.199 151.434 133.947 154.209 131.877 156.544ZM125.094 150.377C123.508 152.139 124.345 154.297 125.799 155.575C127.252 156.852 129.455 157.557 131.04 155.795C132.626 154.033 131.789 151.875 130.336 150.597C128.882 149.32 126.68 148.615 125.094 150.377Z" fill="#1B3B36"/>
<path d="M131.877 156.544C129.763 158.834 126.9 158.35 124.918 156.544C122.936 154.738 122.187 151.963 124.257 149.628C126.327 147.294 129.234 147.822 131.216 149.628C133.199 151.434 133.947 154.209 131.877 156.544ZM125.094 150.377C123.508 152.139 124.345 154.297 125.799 155.575C127.252 156.852 129.455 157.557 131.04 155.795C132.626 154.033 131.789 151.875 130.336 150.597C128.882 149.32 126.68 148.615 125.094 150.377Z" fill="black" fill-opacity="0.2"/>
</g>
<g id="Vector_20">
<path d="M121.879 164.075L124.478 162.093L125.139 162.93L118.928 167.731L118.267 166.895L120.866 164.912L115.581 158.041L116.638 157.248L121.879 164.075Z" fill="#1B3B36"/>
<path d="M121.879 164.075L124.478 162.093L125.139 162.93L118.928 167.731L118.267 166.895L120.866 164.912L115.581 158.041L116.638 157.248L121.879 164.075Z" fill="black" fill-opacity="0.2"/>
</g>
<g id="Vector_21">
<path d="M114.655 170.42L108.709 173.636L108.18 172.666L112.981 170.068L111.484 167.337L107.035 169.759L106.506 168.79L110.955 166.368L109.325 163.417L104.48 166.059L103.952 165.09L109.942 161.831L114.655 170.42Z" fill="#1B3B36"/>
<path d="M114.655 170.42L108.709 173.636L108.18 172.666L112.981 170.068L111.484 167.337L107.035 169.759L106.506 168.79L110.955 166.368L109.325 163.417L104.48 166.059L103.952 165.09L109.942 161.831L114.655 170.42Z" fill="black" fill-opacity="0.2"/>
</g>
<g id="Vector_22">
<path d="M103.598 175.835L102.364 176.276L99.4573 168.083L94.568 169.801L94.2157 168.744L100.338 166.585L103.598 175.835Z" fill="#1B3B36"/>
<path d="M103.598 175.835L102.364 176.276L99.4573 168.083L94.568 169.801L94.2157 168.744L100.338 166.585L103.598 175.835Z" fill="black" fill-opacity="0.2"/>
</g>
</g>
<g id="icon">
<g id="Rectangle 93">
<path d="M90.7209 88.9461C91.5812 87.8328 93.2235 87.7279 94.2184 88.7228V88.7228C95.1469 89.6513 95.0491 91.1842 94.01 91.9871L80.0137 102.802L90.7209 88.9461Z" fill="#FCD043"/>
</g>
<g id="Rectangle 95">
<path d="M93.8689 113.508C94.9822 114.369 95.087 116.011 94.0922 117.006V117.006C93.1636 117.935 91.6308 117.837 90.8278 116.798L80.0125 102.801L93.8689 113.508Z" fill="#FCD043"/>
</g>
<g id="Rectangle 97">
<path d="M97.3759 100.654C98.7714 100.475 100.007 101.562 100.007 102.969V102.969C100.007 104.283 98.8537 105.297 97.5512 105.13L80.0068 102.881L97.3759 100.654Z" fill="#FCD043"/>
</g>
<g id="Rectangle 99">
<path d="M82.2369 120.257C82.4158 121.652 81.3286 122.888 79.9217 122.888V122.888C78.6085 122.888 77.5938 121.735 77.7608 120.432L80.0101 102.888L82.2369 120.257Z" fill="#FCD043"/>
</g>
<g id="Rectangle 94">
<path d="M69.3006 116.656C68.4403 117.77 66.798 117.875 65.8031 116.88V116.88C64.8746 115.951 64.9724 114.418 66.0115 113.615L80.0078 102.8L69.3006 116.656Z" fill="#FCD043"/>
</g>
<g id="Rectangle 96">
<path d="M66.1526 92.094C65.0393 91.2338 64.9345 89.5914 65.9293 88.5966V88.5966C66.8579 87.668 68.3907 87.7659 69.1937 88.805L80.0089 102.801L66.1526 92.094Z" fill="#FCD043"/>
</g>
<g id="Rectangle 98">
<path d="M62.6388 105.11C61.2433 105.289 60.0078 104.202 60.0078 102.795V102.795C60.0078 101.482 61.1609 100.467 62.4634 100.634L80.0078 102.883L62.6388 105.11Z" fill="#FCD043"/>
</g>
<g id="Rectangle 100">
<path d="M77.7826 85.514C77.6037 84.1185 78.6909 82.8831 80.0978 82.8831V82.8831C81.411 82.8831 82.4257 84.0362 82.2587 85.3386L80.0094 102.883L77.7826 85.514Z" fill="#FCD043"/>
</g>
</g>
</g>
</svg>
